<?xml version="1.0" encoding="utf-8"?>
<!-- Generator: Adobe Illustrator 16.0.0, SVG Export Plug-In . SVG Version: 6.00 Build 0)  -->
<!DOCTYPE svg PUBLIC "-//W3C//DTD SVG 1.1//EN" "http://www.w3.org/Graphics/SVG/1.1/DTD/svg11.dtd">
<svg version="1.1" id="Layer_1" xmlns="http://www.w3.org/2000/svg" xmlns:xlink="http://www.w3.org/1999/xlink" x="0px" y="0px"
	 width="1280px" height="800px" viewBox="0 0 1280 800" enable-background="new 0 0 1280 800" xml:space="preserve">
<path id="path4797_8_" fill="#9AC1CF" d="M687.878,614.17l-61.603,61.604l-61.601-61.604H687.878z"/>
<path id="path4797_1_" fill="#9AC1CF" d="M380.621,554.683l61.603-61.602l61.604,61.602H380.621z"/>
<path id="path4797" fill="#007DC3" enable-background="new    " d="M409.957,278.23l-61.604,61.603
	l-61.604-61.603H409.957z"/>
<path id="path4797_3_" fill="#007DC3" enable-background="new    " d="M11.227,614.17l61.604-61.605
	l61.603,61.605H11.227z"/>
<path id="path4797_2_" fill="#007DC3" enable-background="new    " d="M730.605,366.863l-61.604,61.602
	l-61.604-61.602H730.605z"/>
<path id="path4802_1_" fill="#002753" d="M255.947,305.261v123.204l-61.601-61.6L255.947,305.261z"/>
<path id="path4802_2_" fill="#002753" d="M304.186,89.911H180.979l61.603-61.603L304.186,89.911z"/>
<path id="path4797_4_" fill="#E5A54D" d="M472.347,155.009l-61.603,61.603l-61.604-61.603H472.347z"/>
<path id="path4797_7_" fill="#E5A54D" d="M132.926,428.465l-61.604-61.602l61.604-61.602V428.465z"/>
<path id="path4797_15_" fill="#E5A54D" d="M288.702,768.174l61.602-61.604l61.603,61.604H288.702z"/>
<path id="path4797_5_" fill="#E5A54D" d="M656.593,97.857l-61.603,61.604l-61.605-61.604H656.593z"/>
<path id="path4797_6_" fill="#E5A54D" d="M607.397,490.074l-61.604-61.604l61.604-61.604V490.074z"/>
<path id="path4797_9_" fill="#FF751A" d="M410.938,523.884l-61.604,61.602l-61.603-61.602H410.938z"/>
<path id="path4797_10_" fill="#E9E751" d="M730.605,366.863l61.603-61.602l61.606,61.602H730.605z"/>
<path id="path4797_11_" fill="#E9E751" d="M255.947,428.471l-61.601,61.604l-61.604-61.604H255.947z"/>
<path id="path4802" fill="#ACBC47" d="M504.797,675.773V552.564L566.4,614.17L504.797,675.773z"/>
<path id="path4802_4_" fill="#ACBC47" d="M286.75,523.884v123.203l-61.604-61.602L286.75,523.884z"/>
<path id="path4802_3_" fill="#ACBC47" d="M101.938,278.215V155.01l61.606,61.602L101.938,278.215z"/>
<path id="path4797_12_" fill="#265D38" enable-background="new    " d="M134.433,675.773L72.83,737.372
	l-61.602-61.599H134.433z"/>
<path id="path4797_13_" fill="#265D38" enable-background="new    " d="M566.4,493.081l-61.603,61.602
	l-61.604-61.602H566.4z"/>
<path id="path4797_14_" fill="#9E2F2F" d="M504.797,675.773l-61.604,61.603l-61.603-61.603H504.797z"/>
<path id="path4800" fill="#E9E751" d="M410.295,216.614l30.799,30.801l-30.799,30.803V216.614z"/>
<path id="path4800_7_" fill="#E9E751" d="M638.2,336.062l-30.803,30.802l-30.801-30.802H638.2z"/>
<path id="path4800_2_" fill="#E9E751" d="M472.347,155.01l30.802,30.803l-30.802,30.801V155.01z"/>
<path id="path4800_3_" fill="#9E2F2F" d="M503.149,247.413l30.802-30.801l30.798,30.801H503.149z"/>
<path id="path4800_9_" fill="#002753" d="M256.149,798.975l30.802-30.801l30.798,30.801H256.149z"/>
<path id="path4800_1_" fill="#E9E751" d="M103.631,644.969l30.802-30.799l30.803,30.799H103.631z"/>
<path id="path4800_5_" fill="#ACBC47" d="M410.155,706.575l-30.802,30.801l-30.802-30.801H410.155z"/>
<path id="path4799_9_" fill="#E9E751" d="M687.878,554.683v61.605l30.802,30.801v-61.604
	L687.878,554.683z"/>
<path id="path4799_15_" fill="#E9E751" d="M504.797,675.773v61.603l30.804,30.803v-61.604
	L504.797,675.773z"/>
<path id="path4799_30_" fill="#E9E751" d="M1.001,501.082v61.603l30.804,30.803v-61.604L1.001,501.082z"
	/>
<path id="path4799_1_" fill="#E9E751" d="M9.717,216.614h61.604l30.802-30.803H40.52L9.717,216.614z"/>
<path id="path4799_4_" fill="#9AC1CF" d="M504.797,554.685H566.4l30.801-30.801h-61.603L504.797,554.685
	z"/>
<path id="path4799_2_" fill="#9AC1CF" d="M622.798,520.877h61.604l30.803-30.805h-61.607
	L622.798,520.877z"/>
<path id="path4799_25_" fill="#007DC3" enable-background="new    " d="M484.192,366.863h61.604
	l30.8-30.802h-61.601L484.192,366.863z"/>
<path id="path4799_14_" fill="#007DC3" enable-background="new    " d="M764.32,601.408l-43.56,43.561
	v43.563l43.562-43.563L764.32,601.408z"/>
<path id="path4799_3_" fill="#ACBC47" d="M514.995,397.664h61.601l30.801-30.802h-61.604
	L514.995,397.664z"/>
<path id="path4799_29_" fill="#ACBC47" d="M318.35,62.604h61.601l30.801-30.802h-61.604L318.35,62.604z"
	/>
<path id="path4801_5_" fill="#FF751A" d="M40.52,155.009l30.802-30.801l30.802,30.801l-30.802,30.802
	L40.52,155.009z"/>
<path id="path4801_1_" fill="#FF751A" d="M42.029,521.764l30.798-30.805l30.804,30.805l-30.804,30.801
	L42.029,521.764z"/>
<path id="path4801_15_" fill="#FF751A" d="M411.906,768.176l30.798-30.805l30.804,30.805l-30.804,30.801
	L411.906,768.176z"/>
<path id="path4801_8_" fill="#FF751A" d="M472.347,155.01l30.802-30.801l30.802,30.801l-30.802,30.803
	L472.347,155.01z"/>
<path id="path4801_9_" fill="#ACBC47" d="M503.149,185.813l30.802-30.803l30.798,30.803l-30.798,30.801
	L503.149,185.813z"/>
<path id="path4801_6_" fill="#9E2F2F" d="M11.228,737.376l30.801-30.801l30.801,30.801l-30.801,30.803
	L11.228,737.376z"/>
<path id="path4801_2_" fill="#9E2F2F" d="M132.742,366.863l30.802-30.8l30.802,30.8l-30.802,30.801
	L132.742,366.863z"/>
<path id="path4801_11_" fill="#007DC3" enable-background="new    " d="M163.544,520.877l30.802-30.803
	l30.799,30.803l-30.799,30.801L163.544,520.877z"/>
<path id="path4801_13_" fill="#007DC3" enable-background="new    " d="M761.409,274.46l30.799-30.803
	l30.801,30.803l-30.801,30.801L761.409,274.46z"/>
<path id="path4801_16_" fill="#007DC3" enable-background="new    " d="M381.108,62.605l30.799-30.803
	l30.801,30.803l-30.801,30.801L381.108,62.605z"/>
<path id="path4801_12_" fill="#E9E751" d="M381.106,493.081l30.802-30.801l30.798,30.801l-30.798,30.803
	L381.106,493.081z"/>
<path id="path4801_10_" fill="#002753" d="M567.37,552.742l30.801-30.799l30.802,30.799l-30.802,30.803
	L567.37,552.742z"/>
<path id="path4801_17_" fill="#002753" d="M9.718,124.206l30.801-30.799l30.802,30.799l-30.802,30.803
	L9.718,124.206z"/>
<path id="path4801_3_" fill="#9AC1CF" d="M40.52,336.062l30.802-30.802l30.802,30.802l-30.802,30.801
	L40.52,336.062z"/>
<path id="path4801_14_" fill="#9AC1CF" d="M256.146,430.505l30.804-30.8l30.802,30.8l-30.802,30.803
	L256.146,430.505z"/>
<path id="path4801_7_" fill="#9AC1CF" d="M472.347,216.612l30.802-30.801l30.802,30.801l-30.802,30.801
	L472.347,216.612z"/>
<path id="path4801_18_" fill="#FF751A" d="M595.168,706.936l30.802-30.801l30.802,30.801l-30.802,30.801
	L595.168,706.936z"/>
<path id="path4801_4_" fill="#9E2F2F" d="M502.584,67.056l30.801-30.8l30.803,30.8l-30.803,30.801
	L502.584,67.056z"/>
<path id="path4799_6_" fill="#265D38" enable-background="new    " d="M163.544,155.009v61.605
	l30.802,30.801v-61.604L163.544,155.009z"/>
<path id="path4799_12_" fill="#E5A54D" d="M194.346,185.811v61.604l30.799,30.803v-61.604
	L194.346,185.811z"/>
<path id="path4799_5_" fill="#265D38" enable-background="new    " d="M349.14,155.01h61.604
	l30.802-30.802h-61.604L349.14,155.01z"/>
<path id="path4795_5_" fill="#9AC1CF" d="M286.75,278.218v-61.604h61.603L286.75,278.218z"/>
<path id="path4795_16_" fill="#9AC1CF" d="M319.502,62.604V1.001h61.603L319.502,62.604z"/>
<path id="path4795_15_" fill="#E9E751" d="M348.552,585.481h-61.601v-61.6L348.552,585.481z"/>
<path id="path4795_1_" fill="#9AC1CF" d="M410.744,93.408h61.603v61.602L410.744,93.408z"/>
<path id="path4799_7_" fill="#007DC3" enable-background="new    " d="M348.552,399.705v61.605
	l30.802,30.801v-61.605L348.552,399.705z"/>
<path id="path4799_26_" fill="#9AC1CF" d="M71.322,62.604v61.603l30.802,30.803V93.405L71.322,62.604z"
	/>
<path id="path4799_13_" fill="#9E2F2F" d="M823.011,397.664h-61.602l-30.804,30.801h61.604
	L823.011,397.664z"/>
<path id="path4799_16_" fill="#9E2F2F" d="M504.311,554.683h-61.604l-30.798,30.803h61.602
	L504.311,554.683z"/>
<path id="path4799_32_" fill="#9E2F2F" d="M626.001,739.494h-61.604l-30.798,30.803h61.602
	L626.001,739.494z"/>
<path id="path4799_28_" fill="#9E2F2F" d="M504.311,430.505h-61.604l-30.798,30.805h61.604
	L504.311,430.505z"/>
<path id="path4799_18_" fill="#9E2F2F" d="M226.839,583.367h-61.604l-30.803,30.803h61.605
	L226.839,583.367z"/>
<path id="path4799_19_" fill="#9AC1CF" d="M286.75,647.087h-61.604l-30.802,30.803h61.604
	L286.75,647.087z"/>
<path id="path4799_11_" fill="#007DC3" enable-background="new    " d="M349.14,111.451l-43.562,43.562
	l0.003,43.559l43.56-43.561V111.451z"/>
<path id="path4799_8_" fill="#FF751A" d="M255.947,185.811v61.604l30.802,30.803v-61.605
	L255.947,185.811z"/>
<path id="path4799_10_" fill="#9E2F2F" d="M132.926,62.604v61.603l30.803,30.803V93.405L132.926,62.604z
	"/>
<path id="path4795_6_" fill="#FF751A" d="M669.002,428.471h61.604v61.604L669.002,428.471z"/>
<path id="path4795_3_" fill="#FF751A" d="M638.2,173.221h61.603v61.603L638.2,173.221z"/>
<path id="path4795_17_" fill="#FF751A" d="M132.743,62.604V1.001h61.603L132.743,62.604z"/>
<path id="path4795_2_" fill="#FF751A" d="M410.295,278.232h61.602v61.601L410.295,278.232z"/>
<path id="path4795_7_" fill="#ACBC47" d="M853.814,366.865h61.6v61.6L853.814,366.865z"/>
<path id="path4799_17_" fill="#007DC3" enable-background="new    " d="M194.343,677.89v61.604
	l30.802,30.805V708.69L194.343,677.89z"/>
<path id="path4799_20_" fill="#E9E751" d="M255.947,677.89v61.604l30.802,30.805V708.69L255.947,677.89z
	"/>
<path id="path4799_21_" fill="#265D38" enable-background="new    " d="M317.749,614.166v61.607
	l30.803,30.802v-61.606L317.749,614.166z"/>
<path id="path4799_22_" fill="#007DC3" enable-background="new    " d="M348.552,583.367v61.602
	l30.802,30.805v-61.607L348.552,583.367z"/>
<path id="path4799_23_" fill="#007DC3" enable-background="new    " d="M71.322,366.862l-43.562,43.559
	v43.562l43.562-43.562V366.862z"/>
<path id="path4799_24_" fill="#E5A54D" d="M165.235,644.969h-61.604L72.83,675.773h61.603
	L165.235,644.969z"/>
<path id="path4800_8_" fill="#265D38" enable-background="new    " d="M163.543,770.295l30.802-30.799
	l30.803,30.799H163.543z"/>
<path id="path4799_31_" fill="#ACBC47" d="M225.147,770.295h-61.604L132.742,801.1h61.603
	L225.147,770.295z"/>
<path id="path4800_4_" fill="#9E2F2F" d="M255.947,739.493l-30.802-30.803l30.802-30.801V739.493z"/>
<path id="path4800_6_" fill="#9E2F2F" d="M194.346,185.813l30.799-30.803l30.802,30.803H194.346z"/>
<path id="path4795_11_" fill="#007DC3" enable-background="new    " d="M730.605,309.018H669v-61.603
	L730.605,309.018z"/>
<path id="path4795_10_" fill="#9AC1CF" d="M71.322,1.001h61.604v61.603L71.322,1.001z"/>
<path id="path4795_8_" fill="#265D38" enable-background="new    " d="M607.397,247.415H669v61.603
	L607.397,247.415z"/>
<path id="path4795_4_" fill="#E5A54D" d="M502.584,430.505h-61.603v-61.603L502.584,430.505z"/>
<path id="path4795_12_" fill="#ACBC47" d="M440.956,368.902v61.606h-61.602L440.956,368.902z"/>
<path id="path4795_13_" fill="#265D38" enable-background="new    " d="M350.304,338.103v61.602h-61.603
	L350.304,338.103z"/>
<path id="path4795_9_" fill="#FF751A" d="M71.322,366.862H1.001v-70.322L71.322,366.862z"/>
<path id="path4799_27_" fill="#265D38" enable-background="new    " d="M286.75,522.913V461.31
	l-30.802-30.805v61.605L286.75,522.913z"/>
<path id="path4795_14_" fill="#007DC3" enable-background="new    " d="M134.435,798.976H72.83v-61.6
	L134.435,798.976z"/>
<path id="path4799_33_" fill="#007DC3" enable-background="new    " d="M533.951,770.297H472.35
	l-30.805,30.802h61.607L533.951,770.297z"/>
</svg>
