<?xml version="1.0" encoding="utf-8"?>
<!-- Generator: Adobe Illustrator 16.0.0, SVG Export Plug-In . SVG Version: 6.00 Build 0)  -->
<!DOCTYPE svg PUBLIC "-//W3C//DTD SVG 1.1//EN" "http://www.w3.org/Graphics/SVG/1.1/DTD/svg11.dtd">
<svg version="1.1" id="Layer_1" xmlns="http://www.w3.org/2000/svg" xmlns:xlink="http://www.w3.org/1999/xlink" x="0px" y="0px"
	 width="88.783px" height="36.453px" viewBox="0 0 88.783 36.453" enable-background="new 0 0 88.783 36.453" xml:space="preserve">
<g>
	<g>
		<g>
			<g>
				<path fill="#4681CF" d="M15.765,11.089l-0.612-0.739c-0.85-1.011-2.234-1.005-3.255-0.163c-1.029,0.847-1.33,2.248-0.483,3.273
					c0.001,0.002,0.104,0.125,0.279,0.338"/>
				<path fill="#4681CF" d="M11.674,13.775c1.948,2.341,4.565,5.491,4.565,5.491c3.265,3.961,1.805,8.843-2.622,11.623
					c-3.9,2.448-11.062,1.577-13.528-2.442c1.912,5.642,8.327,9.331,15.419,7.558c6.151-1.538,13.024-9.444,5.507-18.564
					l-5.584-6.743"/>
			</g>
			<path fill="#4681CF" d="M12.279,22.25c-1.896-2.279-4.211-5.063-4.211-5.063C4.804,13.226,6.264,8.343,10.69,5.563
				c3.9-2.45,11.062-1.579,13.528,2.443c-1.912-5.644-8.327-9.331-15.419-7.558C2.649,1.984-4.224,9.889,3.292,19.011l5.325,6.433"
				/>
			<path fill="#4681CF" d="M7.771,24.457l1.27,1.533c0.85,1.011,2.234,1.004,3.256,0.162c1.027-0.847,1.329-2.247,0.482-3.275
				c-0.002-0.003-0.5-0.603-1.222-1.469"/>
		</g>
	</g>
	<g>
		<path d="M31.62,21.37c0.129,3.535,2.984,4.65,6.013,4.65c2.294,0,5.408-0.558,5.408-3.582c0-3.07-3.633-3.582-7.312-4.465
			c-3.634-0.884-7.312-2.188-7.312-6.794c0-4.839,4.457-6.84,8.351-6.84c4.933,0,8.871,1.676,9.173,7.539h-3.677
			c-0.26-3.071-2.769-4.049-5.193-4.049c-2.207,0-4.76,0.652-4.76,3.072c0,2.837,3.896,3.303,7.313,4.187
			c3.678,0.884,7.313,2.187,7.313,6.84c0,5.725-4.975,7.584-9.52,7.584c-5.02,0-9.259-2.187-9.475-8.142H31.62z"/>
		<path d="M62.687,20.579c0,2.187-1.991,5.441-6.837,5.441c-2.249,0-4.326-0.929-4.326-3.535c0-2.931,2.078-3.861,4.5-4.327
			c2.467-0.465,5.237-0.511,6.664-1.628V20.579z M68.657,25.79c-0.475,0.187-0.822,0.23-1.124,0.23
			c-1.168,0-1.168-0.835-1.168-2.697V10.947c0-5.629-4.369-6.607-8.393-6.607c-4.978,0-9.262,2.095-9.477,8.05h3.678
			c0.173-3.536,2.466-4.56,5.582-4.56c2.338,0,4.976,0.559,4.976,4.002c0,2.978-3.46,2.699-7.529,3.537
			c-3.806,0.791-7.57,1.953-7.57,7.398c0,4.793,3.331,6.746,7.399,6.746c3.113,0,5.84-1.164,7.873-3.722
			c0,2.604,1.213,3.722,3.117,3.722c1.167,0,1.989-0.233,2.637-0.651V25.79z"/>
		<path d="M72.073,21.37c0.129,3.535,2.983,4.65,6.013,4.65c2.293,0,5.408-0.558,5.408-3.582c0-3.07-3.633-3.582-7.312-4.465
			c-3.634-0.884-7.312-2.188-7.312-6.794c0-4.839,4.458-6.84,8.352-6.84c4.935,0,8.872,1.676,9.173,7.539h-3.676
			c-0.262-3.071-2.772-4.049-5.194-4.049c-2.207,0-4.759,0.652-4.759,3.072c0,2.837,3.896,3.303,7.312,4.187
			c3.677,0.884,7.312,2.187,7.312,6.84c0,5.725-4.978,7.584-9.52,7.584c-5.019,0-9.261-2.187-9.477-8.142H72.073z"/>
	</g>
	<g>
		<path d="M25.098,28.483c0-0.672,0.503-1.175,1.152-1.175c0.637,0,1.145,0.503,1.145,1.175c0,0.679-0.508,1.182-1.145,1.182
			C25.601,29.665,25.098,29.162,25.098,28.483z M26.25,29.896c0.77,0,1.431-0.596,1.431-1.413c0-0.813-0.661-1.411-1.431-1.411
			c-0.776,0-1.438,0.598-1.438,1.411C24.812,29.301,25.474,29.896,26.25,29.896z M25.949,28.593h0.283l0.433,0.708h0.276
			l-0.465-0.72c0.242-0.027,0.426-0.154,0.426-0.447c0-0.322-0.191-0.464-0.579-0.464h-0.62v1.631h0.246V28.593z M25.949,28.386
			V27.88h0.338c0.17,0,0.354,0.037,0.354,0.239c0,0.249-0.184,0.267-0.396,0.267H25.949z"/>
	</g>
	<g>
		<path d="M86.202,28.482c0-0.671,0.503-1.174,1.152-1.174c0.638,0,1.143,0.503,1.143,1.174c0,0.68-0.505,1.182-1.143,1.182
			C86.705,29.664,86.202,29.162,86.202,28.482z M87.354,29.896c0.769,0,1.429-0.596,1.429-1.414c0-0.812-0.66-1.41-1.429-1.41
			c-0.778,0-1.438,0.598-1.438,1.41C85.916,29.301,86.576,29.896,87.354,29.896z M87.055,28.593h0.283l0.43,0.708h0.277
			l-0.463-0.721c0.238-0.026,0.422-0.153,0.422-0.446c0-0.322-0.19-0.464-0.576-0.464h-0.62v1.631h0.247V28.593z M87.055,28.385
			V27.88h0.334c0.174,0,0.356,0.036,0.356,0.239c0,0.249-0.186,0.266-0.396,0.266H87.055z"/>
	</g>
</g>
</svg>
