<?xml version="1.0" encoding="utf-8"?>
<!-- Generator: Adobe Illustrator 16.0.0, SVG Export Plug-In . SVG Version: 6.00 Build 0)  -->
<!DOCTYPE svg PUBLIC "-//W3C//DTD SVG 1.1//EN" "http://www.w3.org/Graphics/SVG/1.1/DTD/svg11.dtd">
<svg version="1.1" id="Layer_1" xmlns="http://www.w3.org/2000/svg" xmlns:xlink="http://www.w3.org/1999/xlink" x="0px" y="0px"
	 width="480px" height="320px" viewBox="0 0 480 320" enable-background="new 0 0 480 320" xml:space="preserve">
<path id="path4797_8_" fill="#9AC1CF" d="M246.723,71.275l-30.634-30.635l-30.633,30.635H246.723z"/>
<path id="path4797_1_" fill="#9AC1CF" d="M107.945,90.847l30.634,30.633l30.633-30.633H107.945z"/>
<path id="path4797" fill="#007DC3" enable-background="new    " d="M122.534,228.316L91.9,197.684
	l-30.634,30.633H122.534z"/>
<path id="path4797_2_" fill="#007DC3" enable-background="new    " d="M281.981,180.238l-30.634-30.632
	l-30.634,30.632H281.981z"/>
<path id="path4802_1_" fill="#002753" d="M45.949,183.227v-61.265l-30.633,30.631L45.949,183.227z"/>
<path id="path4802_2_" fill="#002753" d="M251.346,289.59h-61.264l30.63,30.633L251.346,289.59z"/>
<path id="path4797_4_" fill="#E5A54D" d="M153.559,289.59l-30.634-30.633L92.292,289.59H153.559z"/>
<path id="path4797_6_" fill="#E5A54D" d="M220.714,118.972l-30.634,30.632l30.634,30.634V118.972z"/>
<path id="path4797_9_" fill="#FF751A" d="M123.022,106.162L92.389,75.529l-30.634,30.633H123.022z"/>
<path id="path4797_5_" fill="#FF751A" d="M62.107,320.223L31.474,289.59L0.84,320.223H62.107z"/>
<path id="path4797_10_" fill="#E9E751" d="M259.007,180.239l30.633,30.633l30.634-30.633H259.007z"/>
<path id="path4797_11_" fill="#E9E751" d="M62.107,228.315l-30.633-30.632L0.841,228.315H62.107z"/>
<path id="path4802_4_" fill="#ACBC47" d="M61.267,106.162V44.896L30.635,75.529L61.267,106.162z"/>
<path id="path4797_13_" fill="#265D38" enable-background="new    " d="M200.327,121.479l-30.632-30.633
	l-30.635,30.633H200.327z"/>
<path id="path4797_14_" fill="#9E2F2F" d="M169.695,60.214l-30.635-30.633l-30.633,30.633H169.695z"/>
<path id="path4797_3_" fill="#9E2F2F" d="M215.804,228.015l-31.279-31.278l-31.278,31.278H215.804z"/>
<path id="path4800" fill="#E9E751" d="M122.701,258.956l15.314-15.315l-15.314-15.317V258.956z"/>
<path id="path4800_7_" fill="#E9E751" d="M236.031,195.556l-15.317-15.317l-15.317,15.317H236.031z"/>
<path id="path4800_2_" fill="#E9E751" d="M153.559,289.59l15.316-15.317l-15.316-15.316V289.59z"/>
<path id="path4800_3_" fill="#9AC1CF" d="M168.875,243.642l15.316,15.315l15.315-15.315H168.875z"/>
<path id="path4800_5_" fill="#ACBC47" d="M122.632,15.316L107.316,0L91.999,15.316H122.632z"/>
<path id="path4799_9_" fill="#E9E751" d="M281.981,113.821V83.187l15.317-15.318v30.635L281.981,113.821
	z"/>
<path id="path4799_15_" fill="#E9E751" d="M45.949,304.906v-30.633l15.316-15.317v30.634L45.949,304.906
	z"/>
<path id="path4799_4_" fill="#9AC1CF" d="M169.695,90.846h30.632l15.316,15.316h-30.633L169.695,90.846z
	"/>
<path id="path4799_2_" fill="#9AC1CF" d="M215.646,107.658h30.633l15.316,15.317H230.96L215.646,107.658
	z"/>
<path id="path4799_25_" fill="#007DC3" enable-background="new    " d="M159.448,180.238h30.634
	l15.314,15.317h-30.632L159.448,180.238z"/>
<path id="path4799_14_" fill="#007DC3" enable-background="new    " d="M183.593,43.546l-21.661-21.661
	V0.224l21.661,21.661V43.546z"/>
<path id="path4799_3_" fill="#ACBC47" d="M174.765,164.922h30.632l15.317,15.317H190.08L174.765,164.922
	z"/>
<path id="path4801_8_" fill="#FF751A" d="M153.559,289.59l15.316,15.316l15.316-15.316l-15.316-15.317
	L153.559,289.59z"/>
<path id="path4801_9_" fill="#ACBC47" d="M168.875,274.272l15.316,15.317l15.315-15.317l-15.315-15.316
	L168.875,274.272z"/>
<path id="path4801_11_" fill="#007DC3" enable-background="new    " d="M0,106.162l15.316,15.317
	l15.317-15.317L15.316,90.845L0,106.162z"/>
<path id="path4801_13_" fill="#007DC3" enable-background="new    " d="M250.692,274.625l15.316,15.316
	l15.316-15.316l-15.316-15.316L250.692,274.625z"/>
<path id="path4801_12_" fill="#E9E751" d="M108.188,121.479l15.317,15.315l15.314-15.315l-15.314-15.317
	L108.188,121.479z"/>
<path id="path4801_10_" fill="#002753" d="M200.81,91.812l15.315,15.315l15.317-15.315l-15.317-15.317
	L200.81,91.812z"/>
<path id="path4801_14_" fill="#9AC1CF" d="M46.05,152.595l15.315,15.317l15.318-15.317l-15.318-15.316
	L46.05,152.595z"/>
<path id="path4801_1_" fill="#FF751A" d="M193.975,31.929l15.315,15.317l15.318-15.317L209.29,16.612
	L193.975,31.929z"/>
<path id="path4799_6_" fill="#265D38" enable-background="new    " d="M0.001,289.59v-30.634
	l15.316-15.315v30.633L0.001,289.59z"/>
<path id="path4799_12_" fill="#E5A54D" d="M15.317,274.273v-30.633l15.317-15.317v30.633L15.317,274.273
	z"/>
<path id="path4799_5_" fill="#265D38" enable-background="new    " d="M92.292,289.59h30.633
	l15.316,15.316h-30.632L92.292,289.59z"/>
<path id="path4795_5_" fill="#9AC1CF" d="M61.267,228.323v30.633H91.9L61.267,228.323z"/>
<path id="path4795_15_" fill="#E9E751" d="M91.999,75.53H61.365v30.632L91.999,75.53z"/>
<path id="path4795_1_" fill="#9AC1CF" d="M122.925,320.223h30.634V289.59L122.925,320.223z"/>
<path id="path4799_7_" fill="#007DC3" enable-background="new    " d="M91.999,167.912v-30.635
	l15.317-15.316v30.634L91.999,167.912z"/>
<path id="path4799_13_" fill="#9E2F2F" d="M327.932,135.885h-30.633l-15.317-15.315h30.634
	L327.932,135.885z"/>
<path id="path4799_16_" fill="#9E2F2F" d="M169.453,90.847h-30.634l-15.314-15.317h30.632
	L169.453,90.847z"/>
<path id="path4799_28_" fill="#9E2F2F" d="M169.453,152.595h-30.634l-15.314-15.317h30.633
	L169.453,152.595z"/>
<path id="path4799_18_" fill="#9E2F2F" d="M46.847,61.266H16.213L0.896,45.95h30.633L46.847,61.266z"/>
<path id="path4799_19_" fill="#9AC1CF" d="M61.267,44.896H30.635L15.316,29.58H45.95L61.267,44.896z"/>
<path id="path4799_11_" fill="#007DC3" enable-background="new    " d="M92.292,311.25l-21.661-21.661
	l0.001-21.661l21.66,21.662V311.25z"/>
<path id="path4799_8_" fill="#FF751A" d="M45.95,274.273v-30.633l15.316-15.317v30.634L45.95,274.273z"
	/>
<path id="path4795_6_" fill="#FF751A" d="M251.348,149.604h30.634v-30.632L251.348,149.604z"/>
<path id="path4795_3_" fill="#FF751A" d="M220.061,274.625h30.632v-30.634L220.061,274.625z"/>
<path id="path4795_2_" fill="#FF751A" d="M122.701,228.316h30.633v-30.633L122.701,228.316z"/>
<path id="path4799_17_" fill="#007DC3" enable-background="new    " d="M0.896,199.91v-30.634
	l15.317-15.317v30.634L0.896,199.91z"/>
<path id="path4799_20_" fill="#E9E751" d="M0.896,47.266V16.632L16.213,1.313v30.634L0.896,47.266z"/>
<path id="path4799_21_" fill="#265D38" enable-background="new    " d="M76.683,61.268V30.633
	l15.316-15.316V45.95L76.683,61.268z"/>
<path id="path4799_22_" fill="#007DC3" enable-background="new    " d="M91.999,76.582V45.95
	l15.317-15.317v30.635L91.999,76.582z"/>
<path id="path4800_4_" fill="#9E2F2F" d="M61.266,14.265L45.949,29.58l15.316,15.317V14.265z"/>
<path id="path4800_6_" fill="#9E2F2F" d="M15.317,274.272l15.317,15.317l15.315-15.317H15.317z"/>
<path id="path4795_11_" fill="#007DC3" enable-background="new    " d="M281.326,213.357h-30.635v30.634
	L281.326,213.357z"/>
<path id="path4795_8_" fill="#265D38" enable-background="new    " d="M220.059,243.991h30.633v-30.634
	L220.059,243.991z"/>
<path id="path4795_4_" fill="#E5A54D" d="M168.594,152.595h-30.633v30.634L168.594,152.595z"/>
<path id="path4795_12_" fill="#ACBC47" d="M137.95,183.229v-30.634h-30.634L137.95,183.229z"/>
<path id="path4795_7_" fill="#ACBC47" d="M274.324,62.583V31.949h-30.635L274.324,62.583z"/>
<path id="path4795_13_" fill="#265D38" enable-background="new    " d="M92.869,198.545v-30.633H62.237
	L92.869,198.545z"/>
<path id="path4799_27_" fill="#265D38" enable-background="new    " d="M61.267,106.646v30.632
	L45.95,152.595v-30.634L61.267,106.646z"/>
</svg>
