<?xml version="1.0" encoding="utf-8"?>
<!-- Generator: Adobe Illustrator 16.0.0, SVG Export Plug-In . SVG Version: 6.00 Build 0)  -->
<!DOCTYPE svg PUBLIC "-//W3C//DTD SVG 1.1//EN" "http://www.w3.org/Graphics/SVG/1.1/DTD/svg11.dtd">
<svg version="1.1" id="Layer_1" xmlns="http://www.w3.org/2000/svg" xmlns:xlink="http://www.w3.org/1999/xlink" x="0px" y="0px"
	 width="320px" height="480px" viewBox="0 0 320 480" enable-background="new 0 0 320 480" xml:space="preserve">
<path id="path4797_8_" fill="#9AC1CF" d="M258.956,220.167l30.635,30.634l-30.635,30.633V220.167z"/>
<path id="path4797_1_" fill="#9AC1CF" d="M229.377,372.956l-30.633-30.634l30.633-30.633V372.956z"/>
<path id="path4797" fill="#007DC3" enable-background="new    " d="M91.907,358.367l30.633,30.634
	l-30.633,30.634V358.367z"/>
<path id="path4797_2_" fill="#007DC3" enable-background="new    " d="M139.985,198.919l30.632,30.634
	l-30.632,30.634V198.919z"/>
<path id="path4802_1_" fill="#002753" d="M136.997,434.952h61.265l-30.631,30.633L136.997,434.952z"/>
<path id="path4802_2_" fill="#002753" d="M30.633,234.626v61.264L0,265.26L30.633,234.626z"/>
<path id="path4797_4_" fill="#E5A54D" d="M30.633,327.343l30.633,30.634l-30.633,30.633V327.343z"/>
<path id="path4797_6_" fill="#E5A54D" d="M201.252,260.188l-30.632,30.634l-30.634-30.634H201.252z"/>
<path id="path4797_9_" fill="#FF751A" d="M214.062,357.879l30.633,30.634l-30.633,30.634V357.879z"/>
<path id="path4797_5_" fill="#FF751A" d="M0.001,418.794l30.633,30.634L0.001,480.062V418.794z"/>
<path id="path4797_7_" fill="#FF751A" d="M259.046,252.528l-30.633-30.634l30.633-30.634V252.528z"/>
<path id="path4797_10_" fill="#E9E751" d="M139.984,221.894l-30.633-30.633l30.633-30.634V221.894z"/>
<path id="path4797_11_" fill="#E9E751" d="M91.908,418.794l30.632,30.633l-30.632,30.634V418.794z"/>
<path id="path4802" fill="#ACBC47" d="M289.591,311.206h-61.267l30.632-30.632L289.591,311.206z"/>
<path id="path4802_4_" fill="#ACBC47" d="M214.062,419.635h61.266l-30.633,30.632L214.062,419.635z"/>
<path id="path4797_13_" fill="#265D38" enable-background="new    " d="M198.744,280.574l30.633,30.632
	l-30.633,30.635V280.574z"/>
<path id="path4797_14_" fill="#9E2F2F" d="M289.591,311.206l30.633,30.635l-30.633,30.633V311.206z"/>
<path id="path4797_3_" fill="#9E2F2F" d="M92.209,265.098l31.278,31.279l-31.278,31.278V265.098z"/>
<path id="path4800" fill="#E9E751" d="M61.268,358.2l15.315-15.314L91.9,358.2H61.268z"/>
<path id="path4800_7_" fill="#E9E751" d="M124.668,244.87l15.317,15.317l-15.317,15.317V244.87z"/>
<path id="path4800_2_" fill="#E9E751" d="M30.634,327.343l15.317-15.316l15.316,15.316H30.634z"/>
<path id="path4800_3_" fill="#9E2F2F" d="M76.582,312.026L61.267,296.71l15.315-15.315V312.026z"/>
<path id="path4800_5_" fill="#ACBC47" d="M304.907,358.27l15.316,15.315l-15.316,15.317V358.27z"/>
<path id="path4800_8_" fill="#ACBC47" d="M304.907,173.357l15.316,15.315l-15.316,15.317V173.357z"/>
<path id="path4799_9_" fill="#E9E751" d="M201.251,198.919h30.634l15.318-15.317h-30.635
	L201.251,198.919z"/>
<path id="path4799_15_" fill="#E9E751" d="M15.317,434.952H45.95l15.317-15.316H30.633L15.317,434.952z"
	/>
<path id="path4799_4_" fill="#9AC1CF" d="M229.378,311.206v-30.632l-15.316-15.316v30.633
	L229.378,311.206z"/>
<path id="path4799_23_" fill="#9AC1CF" d="M30.634,234.622V203.99l-15.316-15.316v30.633L30.634,234.622
	z"/>
<path id="path4799_2_" fill="#9AC1CF" d="M212.565,265.256v-30.633l-15.317-15.317v30.635
	L212.565,265.256z"/>
<path id="path4799_25_" fill="#007DC3" enable-background="new    " d="M139.985,321.453v-30.634
	l-15.317-15.314v30.632L139.985,321.453z"/>
<path id="path4799_14_" fill="#007DC3" enable-background="new    " d="M276.678,297.309l21.661,21.661
	H320l-21.661-21.661H276.678z"/>
<path id="path4799_3_" fill="#ACBC47" d="M155.302,306.137v-30.632l-15.318-15.317v30.634
	L155.302,306.137z"/>
<path id="path4801_8_" fill="#FF751A" d="M30.634,327.343l-15.316-15.316l15.316-15.316l15.317,15.316
	L30.634,327.343z"/>
<path id="path4801_9_" fill="#ACBC47" d="M45.951,312.026L30.634,296.71l15.317-15.315l15.316,15.315
	L45.951,312.026z"/>
<path id="path4801_11_" fill="#007DC3" enable-background="new    " d="M214.062,480.901l-15.317-15.316
	l15.317-15.317l15.317,15.317L214.062,480.901z"/>
<path id="path4801_13_" fill="#007DC3" enable-background="new    " d="M45.599,250.225l-15.316-15.316
	l15.316-15.317l15.316,15.317L45.599,250.225z"/>
<path id="path4801_12_" fill="#E9E751" d="M198.744,372.714l-15.315-15.317l15.315-15.314l15.317,15.314
	L198.744,372.714z"/>
<path id="path4801_10_" fill="#002753" d="M228.412,280.092l-15.315-15.315l15.315-15.317l15.317,15.317
	L228.412,280.092z"/>
<path id="path4801_14_" fill="#9AC1CF" d="M167.629,434.852l-15.318-15.315l15.318-15.318l15.316,15.318
	L167.629,434.852z"/>
<path id="path4801_1_" fill="#FF751A" d="M298.303,272.915L282.985,257.6l15.317-15.318l15.316,15.318
	L298.303,272.915z"/>
<path id="path4801_7_" fill="#9AC1CF" d="M61.267,327.343L45.95,312.026l15.316-15.316l15.315,15.316
	L61.267,327.343z"/>
<path id="path4799_6_" fill="#265D38" enable-background="new    " d="M30.633,480.9h30.634
	l15.315-15.316H45.95L30.633,480.9z"/>
<path id="path4799_12_" fill="#E5A54D" d="M45.95,465.584h30.633L91.9,450.267H61.268L45.95,465.584z"/>
<path id="path4799_30_" fill="#E9E751" d="M45.95,191.261v-30.634l-15.316-15.315v30.633L45.95,191.261z
	"/>
<path id="path4799_29_" fill="#E5A54D" d="M16.632,191.261v-30.633L1.314,145.311v30.633L16.632,191.261
	z"/>
<path id="path4799_5_" fill="#265D38" enable-background="new    " d="M30.634,388.609v-30.633
	L15.317,342.66v30.632L30.634,388.609z"/>
<path id="path4795_5_" fill="#9AC1CF" d="M91.9,419.635H61.268v-30.634L91.9,419.635z"/>
<path id="path4795_15_" fill="#E9E751" d="M244.693,388.902v30.634h-30.632L244.693,388.902z"/>
<path id="path4795_1_" fill="#9AC1CF" d="M0,357.977v-30.634h30.633L0,357.977z"/>
<path id="path4799_7_" fill="#007DC3" enable-background="new    " d="M152.311,388.902h30.635
	l15.316-15.317h-30.634L152.311,388.902z"/>
<path id="path4799_13_" fill="#9E2F2F" d="M184.339,152.97v30.633l15.315,15.317v-30.634L184.339,152.97
	z"/>
<path id="path4799_16_" fill="#9E2F2F" d="M229.377,311.448v30.634l15.317,15.314v-30.632
	L229.377,311.448z"/>
<path id="path4799_28_" fill="#9E2F2F" d="M167.629,311.448v30.634l15.317,15.314v-30.633
	L167.629,311.448z"/>
<path id="path4799_18_" fill="#9E2F2F" d="M258.958,434.055v30.634l15.315,15.316v-30.633
	L258.958,434.055z"/>
<path id="path4799_19_" fill="#9AC1CF" d="M275.327,419.635v30.632l15.316,15.318v-30.634
	L275.327,419.635z"/>
<path id="path4799_11_" fill="#007DC3" enable-background="new    " d="M8.973,388.609l21.661,21.661
	l21.661-0.001l-21.662-21.66H8.973z"/>
<path id="path4799_8_" fill="#FF751A" d="M45.95,434.951h30.633L91.9,419.635H61.267L45.95,434.951z"/>
<path id="path4795_6_" fill="#FF751A" d="M170.62,229.553v-30.634h30.632L170.62,229.553z"/>
<path id="path4795_3_" fill="#FF751A" d="M45.599,280.856v-30.632h30.633L45.599,280.856z"/>
<path id="path4795_2_" fill="#FF751A" d="M91.907,358.2v-30.633h30.633L91.907,358.2z"/>
<path id="path4799_17_" fill="#007DC3" enable-background="new    " d="M120.313,480.006h30.633
	l15.318-15.317H135.63L120.313,480.006z"/>
<path id="path4799_20_" fill="#E9E751" d="M272.958,480.005h30.634l15.318-15.316h-30.634
	L272.958,480.005z"/>
<path id="path4799_21_" fill="#265D38" enable-background="new    " d="M258.956,404.219h30.635
	l15.316-15.316h-30.634L258.956,404.219z"/>
<path id="path4799_22_" fill="#007DC3" enable-background="new    " d="M243.642,388.902h30.632
	l15.317-15.317h-30.635L243.642,388.902z"/>
<path id="path4799_26_" fill="#265D38" enable-background="new    " d="M258.956,188.674h30.635
	l15.316-15.316h-30.634L258.956,188.674z"/>
<path id="path4799_24_" fill="#007DC3" enable-background="new    " d="M243.642,160.628h30.632
	l15.317-15.317h-30.635L243.642,160.628z"/>
<path id="path4800_4_" fill="#9E2F2F" d="M305.959,419.636l-15.315,15.316l-15.317-15.316H305.959z"/>
<path id="path4800_6_" fill="#9E2F2F" d="M45.951,465.584l-15.317-15.317l15.317-15.315V465.584z"/>
<path id="path4799_10_" fill="#E5A54D" d="M45.95,219.306h30.633L91.9,203.989H61.267L45.95,219.306z"/>
<path id="path4799_1_" fill="#ACBC47" d="M45.95,188.673h30.633L91.9,173.357H61.266L45.95,188.673z"/>
<path id="path4800_1_" fill="#9E2F2F" d="M45.951,219.306l-15.317-15.317l15.317-15.315V219.306z"/>
<path id="path4795_11_" fill="#007DC3" enable-background="new    " d="M106.866,219.59v30.635H76.232
	L106.866,219.59z"/>
<path id="path4795_8_" fill="#265D38" enable-background="new    " d="M76.232,280.858v-30.633h30.634
	L76.232,280.858z"/>
<path id="path4795_4_" fill="#E5A54D" d="M167.629,312.308v30.633h-30.634L167.629,312.308z"/>
<path id="path4795_12_" fill="#ACBC47" d="M136.995,342.951h30.634v30.634L136.995,342.951z"/>
<path id="path4795_13_" fill="#265D38" enable-background="new    " d="M121.678,388.032h30.633v30.632
	L121.678,388.032z"/>
<path id="path4799_27_" fill="#265D38" enable-background="new    " d="M213.578,419.635h-30.632
	l-15.317,15.316h30.634L213.578,419.635z"/>
</svg>
