<?xml version="1.0" encoding="utf-8"?>
<!-- Generator: Adobe Illustrator 16.0.0, SVG Export Plug-In . SVG Version: 6.00 Build 0)  -->
<!DOCTYPE svg PUBLIC "-//W3C//DTD SVG 1.1//EN" "http://www.w3.org/Graphics/SVG/1.1/DTD/svg11.dtd">
<svg version="1.1" id="Layer_1" xmlns="http://www.w3.org/2000/svg" xmlns:xlink="http://www.w3.org/1999/xlink" x="0px" y="0px"
	 width="768px" height="1024px" viewBox="0 0 768 1024" enable-background="new 0 0 768 1024" xml:space="preserve">
<path id="path4797_8_" fill="#9AC1CF" d="M586.675,529.602l61.49,61.489l-61.49,61.49V529.602z"/>
<path id="path4797_1_" fill="#9AC1CF" d="M527.298,836.297l-61.489-61.489l61.489-61.492V836.297z"/>
<path id="path4797" fill="#007DC3" enable-background="new    " d="M251.351,807.014l61.49,61.491
	l-61.49,61.492V807.014z"/>
<path id="path4797_2_" fill="#007DC3" enable-background="new    " d="M339.821,486.952l61.489,61.491
	l-61.489,61.492V486.952z"/>
<path id="path4802_1_" fill="#002753" d="M278.331,960.741h122.98l-61.488,61.489L278.331,960.741z"/>
<path id="path4802_2_" fill="#002753" d="M122.982,1024H0l61.49-61.489L122.982,1024z"/>
<path id="path4797_4_" fill="#E5A54D" d="M189.844,867.719l-61.491-61.489l61.491-61.491V867.719z"/>
<path id="path4797_7_" fill="#E5A54D" d="M735.126,711.172l-86.961,0.002v-86.962L735.126,711.172z"/>
<path id="path4797_5_" fill="#E5A54D" d="M71.307,560.828l61.491,61.49l-61.491,61.493V560.828z"/>
<path id="path4797_6_" fill="#E5A54D" d="M462.807,609.935l-61.492,61.492l-61.49-61.492H462.807z"/>
<path id="path4797_9_" fill="#FF751A" d="M496.555,806.035l61.49,61.491l-61.49,61.49V806.035z"/>
<path id="path4797_10_" fill="#E9E751" d="M339.821,486.952l-61.491-61.492l61.491-61.491V486.952z"/>
<path id="path4802" fill="#ACBC47" d="M648.165,712.347H525.184l61.491-61.49L648.165,712.347z"/>
<path id="path4802_4_" fill="#ACBC47" d="M496.555,929.997h122.978l-61.487,61.49L496.555,929.997z"/>
<path id="path4797_13_" fill="#265D38" enable-background="new    " d="M465.809,650.856l61.489,61.49
	l-61.489,61.491V650.856z"/>
<path id="path4797_14_" fill="#9E2F2F" d="M648.165,712.347l61.491,61.491l-61.491,61.492V712.347z"/>
<path id="path4797_3_" fill="#9E2F2F" d="M66.494,866.354L5.003,804.863l61.491-61.492V866.354z"/>
<path id="path4800" fill="#E9E751" d="M189.847,806.676l30.744-30.742l30.746,30.742H189.847z"/>
<path id="path4800_7_" fill="#E9E751" d="M309.075,579.188l30.746,30.746l-30.746,30.744V579.188z"/>
<path id="path4800_2_" fill="#E9E751" d="M128.355,744.738l30.747-30.746l30.746,30.746H128.355z"/>
<path id="path4800_3_" fill="#9E2F2F" d="M220.589,713.992l-30.744-30.747l30.744-30.741V713.992z"/>
<path id="path4800_5_" fill="#ACBC47" d="M678.91,806.815l30.746,30.746l-30.746,30.745V806.815z"/>
<path id="path4799_9_" fill="#E9E751" d="M527.298,529.602h61.491l30.747-30.747h-61.491
	L527.298,529.602z"/>
<path id="path4799_15_" fill="#E9E751" d="M555.929,741.921h61.491l30.746-30.747h-61.492
	L555.929,741.921z"/>
<path id="path4799_1_" fill="#E9E751" d="M312.841,868.308h61.491l30.746-30.747h-61.492
	L312.841,868.308z"/>
<path id="path4799_4_" fill="#9AC1CF" d="M527.301,712.347v-61.49l-30.746-30.744v61.49L527.301,712.347
	z"/>
<path id="path4799_2_" fill="#9AC1CF" d="M493.552,594.562v-61.492l-30.749-30.746v61.494
	L493.552,594.562z"/>
<path id="path4799_25_" fill="#007DC3" enable-background="new    " d="M339.821,732.914v-61.491
	l-30.746-30.744v61.49L339.821,732.914z"/>
<path id="path4799_14_" fill="#007DC3" enable-background="new    " d="M573.938,453.296l43.479,43.482
	h43.484l-43.484-43.484L573.938,453.296z"/>
<path id="path4799_3_" fill="#ACBC47" d="M370.565,702.169v-61.49l-30.746-30.744v61.492
	L370.565,702.169z"/>
<path id="path4800_1_" fill="#E9E751" d="M465.81,960.542l30.746,30.746l-30.746,30.744V960.542z"/>
<path id="path4801_8_" fill="#FF751A" d="M128.355,744.738L97.61,713.992l30.745-30.747l30.747,30.747
	L128.355,744.738z"/>
<path id="path4801_9_" fill="#ACBC47" d="M159.102,713.992l-30.747-30.747l30.747-30.741l30.745,30.741
	L159.102,713.992z"/>
<path id="path4800_9_" fill="#E9E751" d="M660.898,558.117l30.747-30.746l30.746,30.746H660.898z"/>
<path id="path4801_6_" fill="#ACBC47" d="M691.646,527.371l-30.747-30.747l30.747-30.741l30.745,30.741
	L691.646,527.371z"/>
<path id="path4801_13_" fill="#007DC3" enable-background="new    " d="M247.586,456.205l-30.745-30.745
	l30.745-30.744l30.744,30.744L247.586,456.205z"/>
<path id="path4801_12_" fill="#E9E751" d="M465.809,835.812l-30.745-30.744l30.745-30.743l30.746,30.743
	L465.809,835.812z"/>
<path id="path4801_10_" fill="#FF751A" d="M525.361,649.889l-30.743-30.745l30.743-30.744l30.746,30.744
	L525.361,649.889z"/>
<path id="path4801_2_" fill="#002753" d="M619.534,835.607l-30.743-30.745l30.743-30.744l30.746,30.744
	L619.534,835.607z"/>
<path id="path4801_1_" fill="#002753" d="M525.361,1022.031l-30.743-30.745l30.743-30.744l30.746,30.744
	L525.361,1022.031z"/>
<path id="path4801_14_" fill="#9AC1CF" d="M403.347,960.542l-30.745-30.746l30.745-30.745l30.746,30.745
	L403.347,960.542z"/>
<path id="path4801_7_" fill="#9AC1CF" d="M189.845,744.738L159.1,713.992l30.745-30.747l30.744,30.747
	L189.845,744.738z"/>
<path id="path4800_8_" fill="#E9E751" d="M9.816,560.346L40.563,529.6l30.746,30.746H9.816z"/>
<path id="path4801_5_" fill="#ACBC47" d="M40.563,529.6L9.816,498.852l30.747-30.741l30.745,30.741
	L40.563,529.6z"/>
<path id="path4801_3_" fill="#9AC1CF" d="M71.306,560.346L40.562,529.6l30.745-30.748L102.05,529.6
	L71.306,560.346z"/>
<path id="path4801_4_" fill="#9E2F2F" d="M40.562,714.556L9.816,683.812l30.745-30.746l30.745,30.746
	L40.562,714.556z"/>
<path id="path4799_12_" fill="#E5A54D" d="M159.1,1022.23h61.491l30.746-30.743h-61.489L159.1,1022.23z"
	/>
<path id="path4799_5_" fill="#265D38" enable-background="new    " d="M128.355,867.719v-61.491
	l-30.746-30.745v61.491L128.355,867.719z"/>
<path id="path4795_5_" fill="#9AC1CF" d="M251.336,929.997h-61.489v-61.492L251.336,929.997z"/>
<path id="path4795_15_" fill="#E9E751" d="M558.04,868.307v61.489h-61.488L558.04,868.307z"/>
<path id="path4795_1_" fill="#9AC1CF" d="M66.865,806.228v-61.489h61.49L66.865,806.228z"/>
<path id="path4799_7_" fill="#007DC3" enable-background="new    " d="M372.602,868.307h61.493
	l30.744-30.745h-61.492L372.602,868.307z"/>
<path id="path4799_13_" fill="#9E2F2F" d="M370.565,394.714v61.491l30.745,30.747v-61.493
	L370.565,394.714z"/>
<path id="path4799_16_" fill="#9E2F2F" d="M527.298,712.831v61.493l30.747,30.743v-61.491
	L527.298,712.831z"/>
<path id="path4799_24_" fill="#9E2F2F" d="M704.379,373.646v61.493l30.747,30.743v-61.491
	L704.379,373.646z"/>
<path id="path4799_28_" fill="#9E2F2F" d="M403.347,712.831v61.493l30.748,30.743v-61.493
	L403.347,712.831z"/>
<path id="path4799_23_" fill="#9E2F2F" d="M156.097,485.486h61.493l30.743-30.748H186.84
	L156.097,485.486z"/>
<path id="path4799_19_" fill="#9AC1CF" d="M619.532,929.997v61.49l30.745,30.746v-61.492
	L619.532,929.997z"/>
<path id="path4799_11_" fill="#007DC3" enable-background="new    " d="M92.239,867.719l43.481,43.484
	l43.48-0.003l-43.482-43.481H92.239z"/>
<path id="path4799_8_" fill="#FF751A" d="M159.1,960.741h61.491l30.746-30.744h-61.492L159.1,960.741z"
	/>
<path id="path4795_6_" fill="#FF751A" d="M401.314,548.442v-61.491h61.492L401.314,548.442z"/>
<path id="path4795_3_" fill="#FF751A" d="M102.854,591.092v-61.491h61.489L102.854,591.092z"/>
<path id="path4795_2_" fill="#FF751A" d="M251.352,806.676v-61.487h61.489L251.352,806.676z"/>
<path id="path4795_7_" fill="#ACBC47" d="M473.301,419.765v-61.489h61.488L473.301,419.765z"/>
<path id="path4799_17_" fill="#007DC3" enable-background="new    " d="M650.277,1022.233h61.492
	l30.748-30.746h-61.493L650.277,1022.233z"/>
<path id="path4799_20_" fill="#E9E751" d="M650.277,960.741h61.492l30.748-30.744h-61.493
	L650.277,960.741z"/>
<path id="path4799_21_" fill="#265D38" enable-background="new    " d="M586.671,899.054h61.494
	l30.745-30.747h-61.493L586.671,899.054z"/>
<path id="path4799_22_" fill="#007DC3" enable-background="new    " d="M555.93,868.307h61.487
	l30.748-30.745h-61.494L555.93,868.307z"/>
<path id="path4800_4_" fill="#9E2F2F" d="M711.77,960.741l-30.745,30.746l-30.747-30.746H711.77z"/>
<path id="path4800_6_" fill="#9E2F2F" d="M159.102,1022.23l-30.747-30.743l30.747-30.746V1022.23z"/>
<path id="path4795_11_" fill="#007DC3" enable-background="new    " d="M282.082,486.952v61.493h-61.491
	L282.082,486.952z"/>
<path id="path4795_8_" fill="#265D38" enable-background="new    " d="M220.591,609.935v-61.49h61.491
	L220.591,609.935z"/>
<path id="path4795_4_" fill="#E5A54D" d="M403.347,714.556v61.491h-61.49L403.347,714.556z"/>
<path id="path4795_12_" fill="#ACBC47" d="M341.856,776.071h61.494v61.49L341.856,776.071z"/>
<path id="path4795_10_" fill="#FF751A" d="M309.074,579.178v61.491h-61.49L309.074,579.178z"/>
<path id="path4795_9_" fill="#E9E751" d="M247.583,640.693h61.494v61.49L247.583,640.693z"/>
<path id="path4795_19_" fill="#FF751A" d="M102.051,468.111H40.56v-61.49L102.051,468.111z"/>
<path id="path4795_18_" fill="#E9E751" d="M186.084,456.205l-43.483-43.483l43.48-43.48L186.084,456.205z
	"/>
<path id="path4795_17_" fill="#FF751A" d="M766.999,611.026l-43.48-43.481l43.48-43.479V611.026z"/>
<path id="path4795_16_" fill="#E9E751" d="M770.623,609.935l-43.483,43.483l-43.479-43.48
	L770.623,609.935z"/>
<path id="path4799_10_" fill="#007DC3" enable-background="new    " d="M92.238,992.882v-61.491
	l-30.746-30.744v61.49L92.238,992.882z"/>
<path id="path4795_14_" fill="#E9E751" d="M0,900.661h61.494v61.49L0,900.661z"/>
<path id="path4795_13_" fill="#265D38" enable-background="new    " d="M311.113,866.559h61.489v61.489
	L311.113,866.559z"/>
<path id="path4799_27_" fill="#265D38" enable-background="new    " d="M495.583,929.997h-61.488
	l-30.748,30.744h61.492L495.583,929.997z"/>
<path id="path4799_18_" fill="#265D38" enable-background="new    " d="M92.237,869.309H30.749
	L0.001,900.053h61.492L92.237,869.309z"/>
<path id="path4799_6_" fill="#FF751A" d="M742.514,866.074v-61.488l-30.744-30.748v61.492
	L742.514,866.074z"/>
</svg>
